<?xml version="1.0" encoding="utf-8"?>
<!-- Generator: Adobe Illustrator 19.0.0, SVG Export Plug-In . SVG Version: 6.00 Build 0)  -->
<svg version="1.1" id="Calque_1" xmlns="http://www.w3.org/2000/svg" xmlns:xlink="http://www.w3.org/1999/xlink" x="0px" y="0px"
	 viewBox="252 526.4 91 88.4" style="enable-background:new 252 526.4 91 88.4;" xml:space="preserve">
<style type="text/css">
	.st0{fill:#FFFFFF;stroke:#010202;stroke-width:2;stroke-miterlimit:10;}
	.st1{fill:#010202;stroke:#010202;stroke-miterlimit:10;}
</style>
<path class="st0" d="M297.1,612c-22.6,0-41-18.4-41-41s18.4-41,41-41s41,18.4,41,41S319.7,612,297.1,612"/>
<path class="st1" d="M287,585.9h-7v-22.5h7V585.9z M283.3,560.6L283.3,560.6c-2.6,0-4.2-1.7-4.2-3.9s1.7-3.9,4.3-3.9
	c2.6,0,4.2,1.7,4.2,3.9C287.6,558.9,285.9,560.6,283.3,560.6z M315.1,585.9h-8v-11.6c0-3-1.2-5.1-4-5.1c-2.1,0-3.3,1.4-3.8,2.8
	c-0.2,0.5-0.2,1.2-0.2,1.8V586h-7.9c0,0,0.1-20.6,0-22.5h7.9v3.5c0.5-1.5,3-3.7,7-3.7c5,0,8.9,3.2,8.9,10.2v12.4H315.1z"/>
</svg>
