<?xml version="1.0" encoding="utf-8"?>
<!-- Generator: Adobe Illustrator 19.0.0, SVG Export Plug-In . SVG Version: 6.00 Build 0)  -->
<svg version="1.1" id="Calque_1" xmlns="http://www.w3.org/2000/svg" xmlns:xlink="http://www.w3.org/1999/xlink" x="0px" y="0px"
	 viewBox="234.1 556 82 82" style="enable-background:new 234.1 556 82 82;" xml:space="preserve">
<style type="text/css">
	.st0{fill:#010202;}
</style>
<g>
	<path class="st0" d="M275.1,638c-22.6,0-41-18.4-41-41s18.4-41,41-41s41,18.4,41,41S297.7,638,275.1,638z M275.1,558
		c-21.5,0-39,17.5-39,39s17.5,39,39,39s39-17.5,39-39S296.6,558,275.1,558z"/>
	<path class="st0" d="M286.1,579H264c-3.8,0-7,3.1-7,7v7.3V608c0,3.8,3.1,7,7,7h22.1c3.8,0,7-3.1,7-7v-14.7V586
		C293.1,582.1,289.9,579,286.1,579z M288.1,583.2h0.8v0.8v5.3h-6.1v-6.1H288.1z M269.9,593.3c1.1-1.6,3-2.6,5.1-2.6s4,1,5.1,2.6
		c0.8,1,1.2,2.3,1.2,3.7c0,3.5-2.8,6.3-6.3,6.3s-6.3-2.8-6.3-6.3C268.7,595.6,269.2,594.3,269.9,593.3z M289.6,608
		c0,1.9-1.5,3.4-3.5,3.4H264c-1.9,0-3.4-1.5-3.4-3.4v-14.7h5.4c-0.5,1.1-0.7,2.4-0.7,3.7c0,5.4,4.4,9.8,9.8,9.8s9.8-4.4,9.8-9.8
		c0-1.3-0.3-2.6-0.7-3.7h5.4L289.6,608L289.6,608z"/>
</g>
</svg>
