<?xml version="1.0" encoding="utf-8"?>
<!-- Generator: Adobe Illustrator 19.0.0, SVG Export Plug-In . SVG Version: 6.00 Build 0)  -->
<svg version="1.1" id="Calque_1" xmlns="http://www.w3.org/2000/svg" xmlns:xlink="http://www.w3.org/1999/xlink" x="0px" y="0px"
	 viewBox="0 0 85.4 82" style="enable-background:new 0 0 85.4 82;" xml:space="preserve">
<style type="text/css">
	.st0{fill:#010202;}
	.st1{fill:#010202;stroke:#010202;stroke-width:2;stroke-miterlimit:10;}
	.st2{fill:none;stroke:#FFFFFF;stroke-width:2;stroke-miterlimit:10;}
	.st3{fill:none;stroke:#FDFBFB;stroke-width:2;stroke-miterlimit:10;}
</style>
<g>
	<path class="st0" d="M42.9,82c-22.6,0-41-18.4-41-41c0-22.6,18.4-41,41-41c22.6,0,41,18.4,41,41C83.9,63.6,65.5,82,42.9,82z
		 M42.9,2c-21.5,0-39,17.5-39,39c0,21.5,17.5,39,39,39c21.5,0,39-17.5,39-39C81.9,19.5,64.4,2,42.9,2z"/>
</g>
<path id="XMLID_1_" class="st1" d="M25.9,26.3h33.6c2.6,0,4.7,2.7,4.7,6V50c0,3.3-2.1,6-4.7,6H25.9c-2.6,0-4.7-2.7-4.7-6V32.2
	C21.2,28.9,23.3,26.3,25.9,26.3z"/>
<path id="XMLID_7_" class="st2" d="M62.9,28.2L44.8,43.9c-1.3,1.1-2.9,1.1-4.2,0L22.5,28.2"/>
<line id="XMLID_71_" class="st3" x1="37.4" y1="41.1" x2="22.5" y2="54.1"/>
<line id="XMLID_72_" class="st2" x1="48" y1="41.1" x2="62.9" y2="54.1"/>
</svg>
