<?xml version="1.0" encoding="utf-8"?>
<!-- Generator: Adobe Illustrator 19.0.0, SVG Export Plug-In . SVG Version: 6.00 Build 0)  -->
<svg version="1.1" id="Calque_1" xmlns="http://www.w3.org/2000/svg" xmlns:xlink="http://www.w3.org/1999/xlink" x="0px" y="0px"
	 viewBox="234 505.7 82 83.2" style="enable-background:new 234 505.7 82 83.2;" xml:space="preserve">
<style type="text/css">
	.st0{fill:#010202;}
</style>
<g>
	<path class="st0" d="M275,588.9c-22.6,0-41-18.4-41-41s18.4-41,41-41s41,18.4,41,41S297.6,588.9,275,588.9z M275,508.9
		c-21.5,0-39,17.5-39,39s17.5,39,39,39s39-17.5,39-39S296.5,508.9,275,508.9z"/>
	<path class="st0" d="M275,529.8c-9.9,0-18,8.1-18,18c0,7.4,4.4,13.7,10.8,16.5c-0.1-1.3,0-2.8,0.3-4.1c0.3-1.5,2.3-9.8,2.3-9.8
		s-0.6-1.2-0.6-2.8c0-2.7,1.5-4.7,3.5-4.7c1.6,0,2.4,1.2,2.4,2.7c0,1.6-1,4.1-1.6,6.4c-0.5,1.9,1,3.5,2.8,3.5c3.4,0,5.7-4.4,5.7-9.6
		c0-3.9-2.7-6.9-7.5-6.9c-5.4,0-8.8,4.1-8.8,8.6c0,1.6,0.5,2.7,1.2,3.5c0.3,0.4,0.4,0.6,0.3,1c-0.1,0.3-0.3,1.1-0.4,1.4
		c-0.1,0.5-0.5,0.6-0.9,0.5c-2.5-1-3.7-3.8-3.7-6.9c0-5.1,4.3-11.2,12.8-11.2c6.9,0,11.4,5,11.4,10.3c0,7.1-3.9,12.3-9.7,12.3
		c-1.9,0-3.8-1.1-4.4-2.2c0,0-1,4.1-1.3,5c-0.4,1.4-1.1,2.8-1.8,3.9c1.6,0.5,3.3,0.7,5.1,0.7c9.9,0,18-8.1,18-18
		C293,537.8,284.9,529.8,275,529.8"/>
</g>
</svg>
